<?xml version="1.0" encoding="utf-8"?>
<!-- Generator: Adobe Illustrator 21.1.0, SVG Export Plug-In . SVG Version: 6.00 Build 0)  -->
<svg version="1.1" id="Layer_1" xmlns="http://www.w3.org/2000/svg" xmlns:xlink="http://www.w3.org/1999/xlink" x="0px" y="0px"
	 viewBox="0 0 120 128" style="enable-background:new 0 0 120 128;" xml:space="preserve">
<style type="text/css">
	.st0{fill:#84B0DA;}
	.st1{fill:#FFFFFF;}
	.st2{fill:#1C2C60;}
	.st3{fill:#EFD587;}
	.st4{fill:#6F95B4;}
</style>
<g>
	<path class="st0" d="M104.8,49c0.6-0.2,1.2-0.4,1.8-0.7c0.9-0.4,1.8-0.8,2.6-1.3c0.9-0.5,1.9-0.9,2.9-1.3c0.8-0.3,1.6-0.5,2.4-0.6
		c0.9-0.1,1.7,0,2.5,0.2c0.8,0.2,1.4,0.6,2.1,1.1c0.3,0.2,0.5,0.5,0.8,0.7c0,0.1,0,0.1,0,0.2c-0.4,0-0.8,0.2-1.2,0.4
		c-0.7,0.4-1.4,0.9-2,1.5c-0.2,0.2-0.3,0.4-0.6,0.5c-0.7-0.3-1.4-0.3-2.2-0.4c-0.6,0-1.2,0-1.8,0.1c-0.7,0.1-1.3,0.2-2,0.3
		c-1.6,0.4-3.1,1-4.6,1.7c-0.3,0.2-0.4,0.2-0.3,0.6c0,0,0,0.1,0,0.1c0.2,1.1,0.4,2.3,0.6,3.4c0,0.1,0.1,0.3,0.1,0.4
		c-0.2,0-0.3-0.1-0.5-0.1c-1.2-0.5-2.4-0.8-3.7-0.8c-0.1,0-0.2,0-0.4-0.1c-0.2,0-0.3-0.1-0.5,0c-0.2,0.1-0.5,0.1-0.7,0.1
		c-0.3,0-0.5,0-0.8,0.1c-0.2,0-0.4,0.1-0.7,0.1c-0.5,0.1-0.9,0.2-1.4,0.4c-0.2,0-0.3,0.1-0.5,0.1c-1.3,0.4-2.5,1-3.7,1.6
		c-0.2,0.1-0.4,0.2-0.6,0.3c-0.1,0.1-0.3,0.1-0.3,0.3c-0.3-0.2-0.4-0.5-0.5-0.8c-0.1-0.2-0.1-0.5-0.2-0.7c-0.1-0.4-0.1-0.8-0.3-1.2
		c-0.2-0.4-0.4-0.8-0.7-1c-0.2-0.1-0.3-0.3-0.3-0.5c0-0.1-0.1-0.2-0.1-0.3c0.1,0,0.3-0.1,0.4-0.1c0.6-0.3,1.2-0.5,1.8-0.8
		c0.9-0.4,1.9-0.7,2.9-1c0.8-0.2,1.5-0.4,2.3-0.5c0.5-0.1,0.9-0.2,1.4-0.2c0.5,0,1.1-0.1,1.6-0.1c0.8,0,1.6,0,2.5,0
		c0.5,0,0.9,0.1,1.4,0.1c0.1,0,0.2,0,0.3,0c0.1,0,0.2,0.1,0.3,0c0-0.1,0-0.1,0-0.2c0-0.3-0.1-0.5-0.1-0.7
		C104.9,49.6,104.8,49.3,104.8,49z"/>
	<path class="st1" d="M63.4,127.7c0.1-0.3,0-0.5,0-0.8c0-0.2,0-0.3,0.2-0.4c0.8-0.9,1.6-1.8,2.4-2.8c0.2-0.3,0.5-0.6,0.7-0.9
		c0.1-0.2,0.2-0.4,0.3-0.6c0-0.1,0-0.3,0-0.4c0-0.6-0.4-1-1-1.1c-0.4,0-0.7,0-1.1,0.1c-0.3,0.1-0.4,0.2-0.4,0.5c0,0.2,0,0.4,0,0.6
		c0,0.1,0,0.2-0.1,0.2c-0.3,0-0.7,0-1,0c-0.1,0-0.1-0.1-0.1-0.1c0-0.5,0-1-0.1-1.5c0-0.1,0.1-0.2,0.2-0.2c0.3-0.2,0.6-0.3,0.9-0.4
		c0.5-0.2,1.1-0.2,1.7-0.3c0.4,0,0.8,0,1.2,0.1c1.3,0.4,1.8,1.6,1.5,2.7c-0.1,0.4-0.2,0.7-0.4,1c-0.2,0.3-0.4,0.5-0.6,0.8
		c-0.6,0.7-1.2,1.5-1.8,2.2c-0.1,0.1-0.1,0.1-0.1,0.2c0,0.1,0.1,0,0.2,0c1-0.1,1.9-0.2,2.9-0.3c0.3,0,0.6-0.1,0.8-0.1
		c0.2,0,0.2,0,0.2,0.2c0,0.3,0.2,0.5,0.1,0.8c-0.3,0.1-0.5,0.1-0.8,0.1c-1.5,0.2-3.1,0.3-4.6,0.5c-0.1,0-0.2,0-0.3,0.1
		C63.8,127.7,63.6,127.7,63.4,127.7z"/>
	<path class="st1" d="M56.9,0.3c0.4,0,0.8,0,1.3,0c0,0,0,0,0,0.1C57.7,0.4,57.3,0.4,56.9,0.3C56.9,0.3,56.9,0.3,56.9,0.3z"/>
	<path class="st1" d="M56.9,0.3C56.9,0.3,56.9,0.3,56.9,0.3c-0.3,0.1-0.5,0.1-0.7,0.1c0,0,0-0.1,0-0.1C56.4,0.3,56.7,0.3,56.9,0.3z"
		/>
	<path class="st1" d="M58.2,0.4C58.2,0.3,58.2,0.3,58.2,0.4c0.1-0.1,0.3-0.1,0.4-0.1c0,0,0,0.1,0,0.1C58.4,0.4,58.3,0.4,58.2,0.4z"
		/>
	<path class="st2" d="M90.1,53.5c0,0.1,0.1,0.2,0.1,0.3c0,0.3,0.1,0.4,0.3,0.5c0.4,0.2,0.6,0.6,0.7,1c0.1,0.4,0.2,0.8,0.3,1.2
		c0,0.3,0.1,0.5,0.2,0.7c0.1,0.3,0.3,0.6,0.5,0.8c0.1,0.1,0.3,0.2,0.5,0.3c0.3,0.1,0.5,0.4,0.6,0.7c0.1,0.3,0.1,0.6,0.1,0.8
		c0.2,1.5,0.3,3.1,0.2,4.7c-0.1,0.9-0.2,1.8-0.4,2.7c0,0.2,0,0.3,0,0.5c0,0.3,0,0.6,0,0.9c0,0.3,0.1,0.5,0.2,0.7
		c0.1,0.1,0.1,0.2,0.2,0.3c0.2,0.3,0.2,0.5,0,0.7c0,0.1-0.1,0.1-0.2,0.2c-0.2,0.2-0.3,0.4-0.5,0.6c-0.1,0.2-0.3,0.5-0.4,0.7
		c-0.2,0.3-0.3,0.5-0.3,0.9c0,0.4-0.1,0.7-0.3,1c-0.4,0.6-0.6,1.2-0.6,1.9c0,0.4,0.1,0.9,0.3,1.3c0.2,0.4,0.4,0.8,0.7,1.1
		c0.2,0.3,0.3,0.6,0.4,1c0,0.1,0,0.2,0,0.3c-0.1,0.4-0.1,0.8-0.2,1.1c0,0.2-0.1,0.4-0.2,0.6c-0.1,0.3-0.1,0.5,0,0.8
		c0.1,0.2,0,0.3-0.1,0.4c-0.2,0.2-0.4,0.3-0.5,0.6c-0.1,0.2-0.3,0.3-0.5,0.4c-0.3,0.2-0.5,0.4-0.7,0.7c0,0.1-0.1,0.1-0.1,0.2
		c-0.4,0.5-0.3,0.3-0.4,1c-0.1,0.6-0.1,1.2,0.1,1.8c0.1,0.5,0.1,0.9-0.1,1.4c-0.1,0.2-0.2,0.4-0.2,0.6c-0.4,0.9-0.6,1.8-0.7,2.8
		c0,0.5,0,1,0.1,1.5c0,0.3,0.1,0.5,0.1,0.8c0,0.4-0.2,0.7-0.6,0.9c-0.1,0-0.1,0.1-0.2,0.1c-0.6,0.1-1.2,0.3-1.8,0.4
		c-0.7,0.2-1.4-0.1-1.8-0.7c0,0-0.1-0.1-0.1-0.1c-0.2-0.3-0.5-0.3-0.9-0.2c-0.3,0.1-0.5,0.3-0.6,0.5c-0.1,0.2-0.2,0.5-0.3,0.8
		c0,0.2,0,0.4-0.1,0.6c-0.2,0.6-0.5,1.2-1,1.6c-0.3,0.3-0.7,0.5-1,0.6c-0.7,0.3-1.5,0.7-2.3,0.9c-0.2,0.1-0.4,0.2-0.6,0.3
		c-0.5,0.4-1.1,0.5-1.8,0.2c-0.2-0.1-0.5-0.2-0.7-0.3c-0.3-0.1-0.5-0.3-0.8-0.3c-0.3-0.1-0.4-0.3-0.3-0.6c0-0.1,0.1-0.2,0.2-0.3
		c0.3-0.4,0.6-0.9,0.8-1.3c0.2-0.3,0.3-0.6,0.5-0.8c0.5-0.6,1-0.9,1.8-0.9c0.3,0,0.5-0.2,0.7-0.4c0.2-0.3,0.5-0.6,0.7-1
		c0.2-0.2,0.3-0.5,0.5-0.7c0.3-0.4,0.7-0.8,1.2-0.9c0,0,0.1,0,0.1-0.1c0.1-0.1,0.2-0.2,0.1-0.3c0-0.1-0.1-0.1-0.1-0.2
		c-0.1-0.3-0.1-0.6,0.1-0.8c0.1-0.2,0.2-0.3,0.3-0.5c0-0.1-0.1-0.1-0.2-0.1c-0.1,0-0.1,0-0.2,0c-1.3-0.2-2.4,0.2-3.3,1
		c-0.1,0.1-0.2,0.2-0.4,0.3c-0.2,0.1-0.4,0.2-0.6,0.2c-0.6-0.1-1.1-0.1-1.6,0.1c-0.3,0.1-0.5,0.2-0.8,0.3c-0.5,0.2-1,0.3-1.6,0.4
		c-0.4,0.1-0.8-0.3-0.6-0.7c0-0.1,0.1-0.3,0.2-0.4c0.1-0.1,0.3-0.3,0.4-0.4c0.2-0.2,0.3-0.4,0.4-0.6c0.1-0.3,0.1-0.6,0-0.9
		c-0.1-0.1-0.2-0.3-0.3-0.4c-0.2-0.3-0.5-0.5-0.9-0.3c-0.1,0-0.3,0.1-0.4,0.1c-0.5,0.1-0.9,0.4-1.3,0.7c-0.2,0.2-0.5,0.5-0.7,0.8
		c-0.2,0.3-0.5,0.6-0.7,0.9c-0.3,0.4-0.7,0.8-1.3,1c0,0-0.1,0-0.1,0.1c-0.3,0.2-0.3,0.4-0.1,0.6c0.1,0.1,0.2,0.2,0.3,0.2
		c0.5,0.4,0.5,0.7,0.1,1.2c-0.2,0.2-0.4,0.4-0.6,0.5c-0.1,0-0.1,0.1-0.2,0.1c-0.2,0.2-0.3,0.3-0.2,0.5c0.1,0.3,0.3,0.4,0.6,0.3
		c0.1,0,0.3-0.1,0.4-0.2c0.3-0.2,0.7-0.4,1.1-0.5c0.3-0.1,0.5-0.2,0.8-0.2c0.4,0,0.6,0.1,0.9,0.4c0.2,0.3,0.4,0.6,0.4,1
		c0,0.4,0,0.8-0.2,1.2c-0.2,0.6-0.5,1.1-0.8,1.6c-0.2,0.3-0.5,0.6-0.9,0.6c-0.2,0-0.3,0.1-0.5,0.3c-0.1,0.1-0.2,0.2-0.3,0.3
		c-0.3,0.3-0.5,0.5-0.8,0.7c-0.7,0.4-1.5,0.4-2.3,0.1c-0.3-0.1-0.6-0.3-0.8-0.6c-0.2-0.1-0.3-0.3-0.5-0.4c-0.2-0.1-0.3-0.1-0.4,0.1
		c-0.1,0.2-0.1,0.3-0.2,0.5c0,0.2-0.1,0.4-0.2,0.6c-0.3,0.7-0.8,1.1-1.5,1.1c-0.2,0-0.4,0.1-0.5,0.2c0,0-0.1,0.1-0.1,0.1
		c-0.2,0.1-0.3,0.3-0.3,0.5c0,0.5-0.1,1-0.1,1.5c0,0.5,0,1,0.1,1.4c0,0.1,0.1,0.3,0.1,0.4c0,0,0,0,0.1,0c0,0,0.1,0,0.1,0
		c0.1-0.1,0.1-0.3,0.2-0.4c0.4-1,1-1.9,1.6-2.7c0.1-0.1,0.1-0.2,0.2-0.2c0.7-0.9,2-1,2.9-0.5c0.3,0.2,0.6,0.4,0.8,0.8
		c0.1,0.2,0.2,0.5,0.1,0.8c-0.1,0.5-0.4,0.8-0.7,1.2c-0.2,0.2-0.5,0.3-0.7,0.3c-0.7,0.1-1.4,0.4-2,0.8c-0.9,0.7-1.7,1.5-2.2,2.5
		c-0.2,0.4-0.4,0.8-0.4,1.3c-0.1,0.6-0.3,1.2-0.7,1.8c-0.5,0.9-0.9,1.8-1.1,2.8c-0.1,0.5-0.2,1-0.2,1.5c0,0.2,0,0.5-0.1,0.7
		c-0.1,0.5-0.5,0.7-1,0.7c-0.3,0-0.6,0-0.9-0.2c-0.3-0.1-0.6-0.4-0.6-0.8c0-0.3-0.1-0.5,0-0.8c0.1-0.7,0.1-1.5,0-2.2
		c-0.1-0.7-0.3-1.3-0.6-1.9c-0.3-0.5-0.4-1-0.4-1.5c0-0.5,0-1-0.1-1.4c0-0.2-0.1-0.4-0.1-0.7c0-0.2-0.1-0.3-0.1-0.5
		c0-0.2-0.1-0.4-0.3-0.6c-0.6-0.6-0.7-1.4-0.5-2.2c0.1-0.3,0.2-0.6,0.4-1c0.4-0.7,0.6-1.5,0.8-2.3c0.1-0.3,0.1-0.5,0.2-0.8
		c0.1-0.5-0.2-0.9-0.6-1c-0.2,0-0.4,0-0.5,0.3c0,0.1,0,0.1,0,0.2c-0.1,0.8-0.3,1.6-0.3,2.4c0,0.2,0,0.4-0.1,0.6
		c-0.1,0.4-0.3,0.8-0.7,0.9c-0.1,0.1-0.3,0.1-0.4,0.2c-0.1,0.1-0.2,0.2-0.2,0.4c0,0.2,0,0.4-0.1,0.7c-0.1,0.5-0.4,0.8-0.8,0.9
		c-0.2,0.1-0.4,0.1-0.6,0.1c-0.3,0-0.5,0.1-0.8,0.1c-0.2,0-0.4,0.1-0.6,0.2c-0.1,0-0.1,0.1-0.1,0.2c0.1,0.1,0.1,0.2,0.3,0.2
		c0.1,0,0.1,0,0.2,0c0.9,0.1,1.4,1,1.1,1.9c-0.1,0.2-0.2,0.4-0.4,0.5c-0.4,0.3-0.8,0.6-1.2,1c-0.1,0.1-0.2,0.1-0.3,0.2
		c-0.2,0.1-0.5,0.1-0.7-0.1c-0.3-0.2-0.6-0.5-0.7-0.9c-0.1-0.3-0.2-0.5-0.2-0.8c0-0.3,0-0.6,0-0.9c0-0.6-0.1-1.1-0.2-1.6
		c-0.1-0.7-0.3-1.3-0.4-2c0-0.4-0.2-0.6-0.5-0.7c-0.1-0.1-0.2-0.1-0.4-0.2c-0.9-0.4-1.4-1.1-1.4-2.1c0-0.2,0-0.4,0-0.7
		c0-0.2,0-0.5-0.1-0.7c-0.1-0.6-0.4-0.9-1-1.1c-0.1,0-0.3-0.1-0.4-0.1c-0.5-0.1-0.6-0.5-0.2-0.9c0.1-0.1,0.2-0.2,0.3-0.3
		c0.2-0.2,0.5-0.3,0.7-0.4c0.3-0.2,0.5-0.3,0.8-0.5c0.5-0.3,1-0.7,1.4-1.2c0.2-0.3,0.4-0.3,0.7-0.2c0.3,0.2,0.6,0.4,0.9,0.6
		c0.2,0.2,0.4,0.5,0.4,0.8c0,0.1,0,0.3,0,0.4c0,0.1-0.1,0.3,0,0.4c0.1,0.1,0.2-0.1,0.4-0.2c0.3-0.2,0.3-0.4,0.2-0.7
		c-0.1-0.2-0.2-0.3-0.3-0.5c-0.1-0.2-0.3-0.4-0.4-0.7c-0.3-0.5-0.3-0.9-0.1-1.4c0,0,0-0.1,0-0.1c0.1-0.3,0.1-0.4-0.2-0.5
		c-0.1,0-0.3,0-0.4,0c-0.2,0.1-0.3,0.1-0.5,0.2c-0.2,0.1-0.4,0-0.5-0.3c-0.2-0.7-0.7-1.3-1.3-1.7c-0.2-0.2-0.5-0.4-0.7-0.6
		c-0.4-0.4-0.7-0.8-0.8-1.3c-0.1-0.4-0.4-0.6-0.8-0.6C42.5,89,42.3,89,42,89c-0.3,0-0.7-0.1-1-0.2c-0.5-0.2-0.9-0.5-1.2-1
		c-0.3-0.6-0.7-0.9-1.2-1c-0.1,0-0.2-0.1-0.3-0.1c-0.9-0.3-1.6-0.8-2.1-1.6c-0.4-0.6-0.6-1.3-0.8-2c-0.3-1-0.4-2.1-0.5-3.1
		c-0.1-1-0.2-2-0.3-2.9c-0.1-0.7,0-1.3,0.1-2c0.1-0.6,0.3-1.2,0.4-1.8c0.1-0.8,0.1-1.7,0-2.5c-0.2-1-0.7-1.8-1.6-2.4
		c-0.1-0.1-0.3-0.2-0.5-0.3c-0.4-0.2-0.7-0.6-0.9-1c-0.1-0.3-0.2-0.6-0.3-0.9c-0.1-0.3-0.1-0.6-0.2-0.9c-0.1-0.6-0.3-1.2-0.9-1.6
		c-0.2-0.2-0.3-0.3-0.3-0.6c0-0.1,0-0.2,0-0.4c0-0.3,0-0.7-0.2-1c0-0.2,0-0.4-0.1-0.5c-0.1-0.9-0.3-1.7-0.2-2.6
		c0-0.9,0.3-1.8,0.8-2.6c0.2-0.3,0.4-0.6,0.6-0.9c0.1-0.2,0.2-0.3,0.3-0.5c0.3-0.2,0.5-0.5,0.5-1c0-0.6,0.2-1.2,0.5-1.8
		c0.2-0.5,0.5-1,0.7-1.5c0.2-0.3,0.3-0.6,0.4-1c0.1-0.4,0.2-0.8,0.1-1.2c0-0.3,0-0.5,0-0.8c0-0.4,0-0.7,0.1-1.1c0-0.1,0-0.3,0-0.4
		c-0.2-0.5-0.3-1.1-0.4-1.6c-0.1-0.7-0.1-1.3,0-2c0.1-0.2,0.1-0.5,0.3-0.7c0.5-0.9,0.8-1.8,1.2-2.7c0.2-0.6,0.5-1.3,0.7-1.9
		c0.4-1,0.9-1.9,1.6-2.6c0.3-0.3,0.5-0.7,0.6-1.1c0.2-1,0.5-2.1,0.7-3.1c0.4-1.6,0.8-3.3,1.2-4.9c0-0.1,0.1-0.3,0.1-0.4
		c0.3-0.5,0.6-1.1,0.8-1.6c0.2-0.4,0.5-0.9,0.8-1.3c0.4-0.6,0.9-1.1,1.6-1.4c0.2-0.1,0.3-0.2,0.5-0.3c0.2-0.1,0.3-0.1,0.5,0
		c0.1,0,0.1,0,0.2,0.1c0.5,0.2,0.9,0.1,1.2-0.3c0.1-0.1,0.2-0.2,0.2-0.3c0.4-0.5,0.7-1,1.1-1.5c0.4-0.5,0.8-1,1.2-1.5
		c1.2-1.1,2.7-1.4,4.3-1c0.3,0.1,0.7,0.2,1,0.3c0.5,0.2,1.1,0.3,1.6,0.3c0.4,0,0.9,0,1.3-0.1c0.7-0.1,1.5,0,2.2,0.1
		c1.1,0.2,2.2,0.5,3.3,0.8c1.4,0.4,2.9,0.7,4.4,0.8c1.1,0.1,2.3,0.1,3.4,0.1c0.8,0,1.6,0,2.4,0.1c0.7,0.1,1.4,0.2,2.1,0.2
		c0.5,0,0.9,0.2,1.1,0.6c0.1,0.2,0.3,0.5,0.4,0.7c1.5,3.4,3.1,6.8,4.6,10.2c1.9,4.2,3.8,8.4,5.7,12.5c0.4,0.8,0.7,1.6,1.1,2.5
		c0,0.1,0.1,0.2,0.2,0.3c0,0.1,0,0.1,0,0.2c0.3,0.8,0.6,1.7,0.9,2.5c0.1,0.2,0.1,0.3,0.2,0.4c0,0.2,0.2,0.4,0.3,0.6
		c0.3,0.4,0.6,0.8,1,1.2c0.1,0.2,0.3,0.3,0.5,0.4c0.3,0.1,0.4,0.3,0.4,0.6c0,0.2,0,0.4-0.1,0.6c-0.1,0.3-0.3,0.4-0.6,0.4
		c-0.1,0-0.2-0.1-0.3,0.1c0,0.1,0.1,0.2,0.2,0.4c0.1,0.2,0.2,0.4,0.5,0.5C90,53.4,90.1,53.5,90.1,53.5z M54.8,56.6c0,1,0.1,2,0.3,3
		c0.2,0.8,0.4,1.7,0.8,2.4c0.7,1.2,1.6,2,3,2.3c0.6,0.1,1.3,0.2,2,0.1c1.8-0.1,3.2-1,4-2.6c0.4-0.7,0.6-1.4,0.7-2.2
		c0.2-1.3,0.3-2.7,0.2-4c0-0.9-0.1-1.7-0.3-2.5c-0.2-0.8-0.5-1.6-1-2.3c-0.6-0.9-1.5-1.5-2.5-1.8c-0.8-0.2-1.5-0.2-2.3-0.1
		c-1.7,0.2-2.9,1.1-3.7,2.6c-0.3,0.5-0.5,1.1-0.7,1.7C54.9,54.1,54.8,55.3,54.8,56.6z M78.5,56.4c0-1.1-0.1-2.2-0.3-3.3
		c-0.2-0.8-0.4-1.6-0.9-2.3c-0.7-1.1-1.6-1.8-2.9-2.1c-0.8-0.2-1.7-0.2-2.5,0c-1.3,0.3-2.4,0.9-3.1,2.1c-0.3,0.4-0.5,0.9-0.7,1.4
		c-0.3,0.9-0.5,1.8-0.6,2.7c-0.1,1.7-0.1,3.3,0.2,5c0.2,0.9,0.5,1.7,0.9,2.5c0.6,1,1.5,1.6,2.6,1.9c0.9,0.2,1.8,0.2,2.8,0.1
		c1.5-0.2,2.6-1.1,3.4-2.4c0.4-0.7,0.6-1.4,0.7-2.2C78.4,58.6,78.5,57.5,78.5,56.4z M48.3,64.1c1.5,0,3.1,0,4.6,0c0.1,0,0.2,0,0.3,0
		c0.2,0,0.2,0,0.2-0.2c0-0.4,0-0.9,0-1.3c0-0.6,0-0.5-0.5-0.5c-1.9,0-3.9,0-5.8,0c-0.1,0-0.3,0-0.4,0c-0.1,0-0.1-0.1-0.1-0.1
		c0.1-0.1,0.1-0.1,0.2-0.2c1.1-1.2,2.2-2.5,3.2-3.7c0.5-0.5,0.9-1,1.3-1.6c0.4-0.5,0.7-1.1,1-1.7c0.3-0.9,0.5-1.8,0.3-2.7
		c-0.2-1.2-0.8-2-1.9-2.6c-0.8-0.5-1.7-0.7-2.6-0.7c-1.3-0.1-2.7,0.1-3.9,0.5c-0.3,0.1-0.7,0.3-1,0.4c-0.1,0.1-0.2,0.1-0.2,0.3
		c0,1,0,2.1,0,3.1c0,0.2,0,0.2,0.2,0.2c0.6,0.1,1.2,0.1,1.8,0.2c0.2,0,0.3,0,0.3-0.2c0-0.4,0-0.7,0-1.1c0-0.1,0-0.3,0-0.4
		c0-0.2,0.1-0.4,0.3-0.5c0.1,0,0.1,0,0.2-0.1c0.7-0.2,1.4-0.2,2.2-0.1c0.3,0.1,0.6,0.2,0.9,0.4c0.3,0.2,0.6,0.6,0.7,1
		c0.1,0.3,0.1,0.7,0.1,1.1c-0.1,0.6-0.3,1.1-0.6,1.5c-0.2,0.4-0.5,0.7-0.8,1c-0.8,1-1.6,1.9-2.5,2.9c-0.9,1.1-1.8,2.1-2.7,3.1
		c-0.2,0.2-0.2,0.4-0.2,0.6c0,0.4,0,0.8,0,1.2c0,0.3,0,0.3,0.3,0.3c0.1,0,0.2,0,0.3,0C45.3,64.1,46.8,64.1,48.3,64.1z"/>
	<path class="st0" d="M33.7,48.1c0.1,0.4,0,0.8-0.1,1.2c-0.1,0.3-0.3,0.7-0.4,1c-0.2,0.5-0.5,1-0.7,1.5c-0.3,0.6-0.4,1.2-0.5,1.8
		c0,0.4-0.2,0.7-0.5,1c-1,0.6-2,1.2-3.1,1.7c-1,0.4-2,0.8-3.1,1.1c-1.1,0.3-2.1,0.5-3.2,0.6c-0.6,0.1-1.2,0.1-1.8,0.1
		c-0.7,0-1.5,0-2.2-0.1c-0.4,0-0.9-0.1-1.3-0.1c-0.8-0.1-1.6-0.3-2.4-0.5c-0.3-0.1-0.4-0.1-0.3,0.3c0,0.1,0,0.2,0,0.3
		c0.1,0.6,0.2,1.2,0.2,1.9c0,0.2,0.1,0.5,0.1,0.7c-0.3,0.1-0.6,0.2-0.9,0.4c-0.8,0.3-1.6,0.7-2.3,1.1c-1,0.4-2,0.9-3,1.2
		c-0.7,0.2-1.4,0.4-2.1,0.5c-1.2,0.2-2.4,0.1-3.5-0.3c-0.9-0.3-1.7-0.8-2.5-1.5C0,61.8,0,61.7-0.1,61.6c0,0,0-0.1,0-0.1
		c0,0,0.1-0.1,0.2-0.1c0.7-0.3,1.3-0.8,1.9-1.2c0.4-0.4,0.8-0.7,1.2-1.1c0.1-0.1,0.2-0.2,0.3-0.2c0.8,0.2,1.6,0.3,2.4,0.3
		c0.3,0,0.6-0.1,0.8-0.1c0.4,0,0.8-0.1,1.2-0.1c0.8-0.1,1.6-0.3,2.3-0.5c1.2-0.3,2.4-0.8,3.6-1.3c0.1-0.1,0.2-0.1,0.2-0.3
		c-0.1-0.3-0.1-0.5-0.1-0.8c-0.1-0.5-0.2-1.1-0.2-1.6c-0.1-0.7-0.2-1.4-0.3-2c0-0.1,0-0.1,0.1-0.1c0.2,0.3,0.6,0.4,0.8,0.6
		c0.4,0.3,0.9,0.4,1.4,0.6c0.5,0.2,1.1,0.3,1.7,0.3c0.1,0,0.2,0,0.3,0c0.5,0.1,0.9,0.1,1.4,0c0.1,0,0.2,0,0.3,0
		c0.4,0,0.8-0.1,1.2-0.1c0.7-0.1,1.4-0.2,2.1-0.4c0.6-0.2,1.1-0.3,1.7-0.5c0.1,0,0.3-0.1,0.4-0.2c0.1,0.1,0.3,0,0.4,0
		c0.6-0.2,1.3-0.5,1.9-0.7c1-0.4,2-0.9,3-1.4C31.3,49.5,32.5,48.8,33.7,48.1z"/>
	<path class="st0" d="M3.3,52.9c-0.4-0.6-0.8-1.2-1.1-1.8C1.6,50,1,49,0.5,47.9c-0.2-0.4-0.4-0.9-0.6-1.3c0.2,0,0.2,0,0.3,0.1
		c0.3,0.2,0.6,0.5,0.9,0.7c0.6,0.4,1.2,0.7,1.9,0.9c1,0.3,2,0.4,3.1,0.2c1.4-0.2,2.7-0.6,3.9-1.2c1.3-0.5,2.5-1.1,3.8-1.7
		c1.1-0.5,2.3-1,3.5-1.2c0.8-0.2,1.7-0.3,2.5-0.2c1.1,0.1,2.2,0.4,3.2,1c0.5,0.3,0.9,0.6,1.3,1c0,0,0.1,0.1,0.1,0.1
		c-0.2,0-0.4,0-0.7,0c-0.6,0-1.1,0.1-1.6,0.3c-0.4,0.1-0.7,0.3-1.1,0.5c-0.4,0.3-0.9,0.6-1.3,0.9c-0.2,0.2-0.5,0.4-0.8,0.6
		c-0.9,0.2-1.7,0.5-2.6,0.8c-1.4,0.5-2.7,1.1-4,1.8c-1.2,0.6-2.3,1.2-3.6,1.5c-1,0.3-1.9,0.5-3,0.4c-0.1,0-0.3,0-0.4,0
		c-0.7,0-1.3-0.1-2-0.4C3.4,52.9,3.3,52.9,3.3,52.9z"/>
	<path class="st3" d="M14.5,60.5c0-0.2-0.1-0.5-0.1-0.7c-0.1-0.6-0.2-1.2-0.2-1.9c0-0.1,0-0.2,0-0.3c0-0.4,0-0.4,0.3-0.3
		c0.8,0.2,1.6,0.4,2.4,0.5c0.4,0.1,0.9,0.1,1.3,0.1c0.7,0.1,1.5,0.1,2.2,0.1c0.6,0,1.2-0.1,1.8-0.1c1.1-0.1,2.2-0.3,3.2-0.6
		c1.1-0.3,2.1-0.7,3.1-1.1c1.1-0.5,2.1-1,3.1-1.7c0,0.2-0.2,0.3-0.3,0.5c-0.2,0.3-0.4,0.6-0.6,0.9c-0.5,0.8-0.8,1.7-0.8,2.6
		c0,0.9,0.1,1.8,0.2,2.6c0,0.2,0,0.4,0.1,0.5c-1,0.5-2,1-3.1,1.3c-1.2,0.4-2.4,0.7-3.6,0.9c-0.7,0.1-1.4,0.2-2,0.2
		c-1,0.1-1.9,0-2.9-0.1c-0.9-0.1-1.7-0.3-2.5-0.6c-0.4-0.1-0.8-0.3-1.2-0.4c0-0.1-0.1-0.1-0.1-0.2c-0.1-0.6-0.1-1.2-0.2-1.8
		C14.6,60.9,14.5,60.7,14.5,60.5z"/>
	<path class="st0" d="M116.7,56.1c0.2,0.4,0.4,0.7,0.6,1.1c0.5,1,1,2,1.5,3c0.2,0.5,0.4,1,0.7,1.5c-0.1,0.1-0.2,0-0.2-0.1
		c-0.5-0.4-1-0.8-1.6-1.2c-0.6-0.3-1.3-0.5-2-0.7c-0.5-0.1-1-0.1-1.5-0.1c-0.8,0.1-1.6,0.2-2.4,0.5c-1,0.3-2,0.7-3,1.1
		c-1,0.4-2.1,0.9-3.1,1.2c-0.7,0.2-1.4,0.4-2.1,0.5c-2,0.2-3.7-0.4-5.2-1.7c-0.3-0.2-0.5-0.5-0.8-0.7c-0.1-0.1-0.1-0.1-0.1-0.2
		c0.3,0,0.7,0,1-0.1c0.2-0.1,0.4-0.1,0.5-0.2c0.4-0.2,0.8-0.4,1.2-0.7c0.2-0.2,0.4-0.3,0.6-0.5c0.1,0,0.1,0,0.2-0.1
		c1.2-0.6,2.5-1.1,3.8-1.6c1-0.4,2-0.7,3.1-1c1.2-0.3,2.4-0.6,3.7-0.7c0.6-0.1,1.2-0.1,1.8-0.1c0.3,0,0.5,0,0.8,0.1
		c0.8,0,1.6,0.2,2.4,0.6C116.5,56,116.6,56,116.7,56.1z"/>
	<path class="st3" d="M90.1,53.5c-0.1-0.1-0.2-0.2-0.2-0.2c-0.3-0.1-0.4-0.3-0.5-0.5c0-0.1-0.1-0.2-0.2-0.4c0.1-0.1,0.2-0.1,0.3-0.1
		c0.3,0,0.5-0.2,0.6-0.4c0.1-0.2,0.1-0.4,0.1-0.6c0-0.3-0.1-0.5-0.4-0.6c-0.2-0.1-0.4-0.3-0.5-0.4c-0.3-0.4-0.7-0.8-1-1.2
		c-0.1-0.2-0.3-0.4-0.3-0.6c1.3-0.6,2.5-1.1,3.8-1.5c1.4-0.5,2.8-0.9,4.2-1.2c0.7-0.1,1.3-0.3,2-0.4c0.5-0.1,1-0.1,1.5-0.2
		c0.6-0.1,1.2-0.1,1.8-0.1c0.5,0,1,0,1.6,0c0.1,0,0.2,0,0.4,0c0.3,0.1,0.5,0.1,0.8,0.1c0.2,0.4,0.2,0.9,0.3,1.4
		c0.1,0.7,0.3,1.5,0.4,2.2c0,0.1,0.1,0.2,0.1,0.3c0,0.3,0.1,0.6,0.1,1c0,0.3,0.1,0.5,0.1,0.7c0,0.1,0,0.1,0,0.2
		c-0.1,0.1-0.2,0-0.3,0c-0.1,0-0.2,0-0.3,0c-0.5,0-0.9-0.1-1.4-0.1c-0.8,0-1.6,0-2.5,0c-0.5,0-1.1,0.1-1.6,0.1
		c-0.5,0-0.9,0.1-1.4,0.2c-0.8,0.1-1.6,0.3-2.3,0.5c-1,0.3-1.9,0.6-2.9,1c-0.6,0.2-1.2,0.5-1.8,0.8C90.4,53.4,90.3,53.5,90.1,53.5z"
		/>
	<path class="st0" d="M104,45.1c-0.3,0-0.5,0-0.8-0.1c-0.1,0-0.2,0-0.4,0c-0.5,0-1,0-1.6,0c-0.6,0-1.2,0.1-1.8,0.1
		c-0.5,0.1-1,0.1-1.5,0.2c-0.7,0.1-1.3,0.2-2,0.4c-1.4,0.3-2.8,0.7-4.2,1.2c-1.3,0.4-2.6,0.9-3.8,1.5c-0.1-0.1-0.2-0.3-0.2-0.4
		c-0.3-0.8-0.6-1.7-0.9-2.5c0-0.1,0-0.1,0-0.2c0.5-0.3,1-0.6,1.6-0.9c0.8-0.4,1.5-0.8,2.3-1.2c1.1-0.5,2.2-1,3.4-1.4
		c0.9-0.3,1.8-0.5,2.8-0.7c1.1-0.2,2.1-0.3,3.2-0.2c1,0.1,2,0.2,2.9,0.5c0.1,0,0.1,0,0.2,0.1c0.1,0,0.2,0.1,0.2,0.3
		c0.2,1,0.4,1.9,0.5,2.9C104,44.8,104,44.9,104,45.1z"/>
	<path class="st0" d="M14.9,63.1c0.4,0.1,0.8,0.3,1.2,0.4c0.8,0.3,1.7,0.5,2.5,0.6c1,0.1,1.9,0.2,2.9,0.1c0.7,0,1.4-0.1,2-0.2
		c1.2-0.2,2.4-0.5,3.6-0.9c1.1-0.4,2.1-0.8,3.1-1.3c0.1,0.3,0.1,0.7,0.2,1c0,0.1,0,0.2,0,0.4c0,0.3,0.1,0.5,0.3,0.6
		c0.5,0.4,0.8,1,0.9,1.6c-0.1,0-0.2,0.1-0.3,0.1c-1.6,0.9-3.3,1.6-5,2.1c-0.9,0.3-1.8,0.5-2.8,0.7c-1.4,0.2-2.7,0.3-4.1,0.2
		c-1.2-0.1-2.4-0.4-3.5-0.9c-0.3-0.1-0.4-0.3-0.4-0.6c-0.1-0.7-0.2-1.3-0.3-2c-0.1-0.5-0.1-1-0.2-1.6C14.8,63.3,14.9,63.2,14.9,63.1
		z"/>
	<path class="st3" d="M3.3,52.9c0.1,0,0.1,0,0.2,0c0.6,0.3,1.3,0.4,2,0.4c0.1,0,0.3,0,0.4,0c1,0,2-0.2,3-0.4
		c1.3-0.4,2.5-0.9,3.6-1.5c1.3-0.7,2.6-1.3,4-1.8c0.9-0.3,1.7-0.6,2.6-0.8c0,0.1-0.1,0.2-0.2,0.3c-0.7,0.8-1.5,1.5-2.4,2.1
		c-0.9,0.6-1.8,1.1-2.9,1.2c-0.1,0-0.1,0.1-0.1,0.1c0.1,0.7,0.2,1.4,0.3,2c0.1,0.5,0.2,1.1,0.2,1.6c0,0.3,0,0.5,0.1,0.8
		c0,0.1,0,0.2-0.2,0.3c-1.2,0.5-2.4,0.9-3.6,1.3c-0.8,0.2-1.5,0.4-2.3,0.5c-0.4,0.1-0.8,0.1-1.2,0.1c-0.3,0-0.6,0.1-0.8,0.1
		c-0.8,0-1.6-0.1-2.4-0.3c0-0.1,0.1-0.2,0.1-0.2c0.6-0.7,1.2-1.5,1.8-2.2c0,0,0.1-0.1,0.1-0.1c0.1-0.1,0.1-0.2,0-0.3
		c-0.2-0.2-0.3-0.5-0.5-0.7c-0.5-0.7-1-1.5-1.6-2.2C3.3,53,3.3,52.9,3.3,52.9z"/>
	<path class="st3" d="M116.7,56.1c-0.1,0-0.2-0.1-0.3-0.1c-0.8-0.3-1.5-0.5-2.4-0.6c-0.3,0-0.5-0.1-0.8-0.1c-0.6,0-1.2,0.1-1.8,0.1
		c-1.3,0.1-2.5,0.4-3.7,0.7c-1,0.3-2.1,0.6-3.1,1c-1.3,0.5-2.5,1-3.8,1.6c-0.1,0-0.1,0-0.2,0.1c0.2-0.2,0.4-0.4,0.6-0.7
		c0.6-0.6,1.3-1.1,2.1-1.5c0.7-0.3,1.5-0.7,2.4-0.6c0.1,0,0.1,0,0.2-0.1c0-0.2,0-0.3-0.1-0.4c-0.2-1.1-0.4-2.3-0.6-3.4
		c0,0,0-0.1,0-0.1c-0.1-0.4,0-0.4,0.3-0.6c1.5-0.7,3-1.3,4.6-1.7c0.7-0.2,1.3-0.3,2-0.3c0.6-0.1,1.2-0.1,1.8-0.1
		c0.7,0,1.5,0.1,2.2,0.4c-0.3,0.3-0.6,0.7-0.8,1c-0.3,0.4-0.6,0.8-0.9,1.1c0,0,0,0.1-0.1,0.1c-0.1,0.1-0.1,0.2,0,0.2
		c0.1,0.2,0.2,0.3,0.3,0.5c0.6,0.9,1.2,1.8,1.8,2.7C116.5,55.7,116.6,55.9,116.7,56.1z"/>
	<path class="st4" d="M13.5,52.3c1.1-0.1,2.1-0.6,2.9-1.2c0.9-0.6,1.6-1.3,2.4-2.1c0.1-0.1,0.1-0.1,0.2-0.3c0.3-0.2,0.5-0.4,0.8-0.6
		c0.4-0.4,0.8-0.6,1.3-0.9c0.3-0.2,0.7-0.4,1.1-0.5c0.5-0.2,1-0.4,1.6-0.3c0.2,0,0.4,0,0.7,0c0.1,0.1,0.1,0.1,0.1,0.2
		c0,0.6,0.1,1.2,0.1,1.8c0,0.8,0.1,1.6,0.1,2.4c0,0.5,0,1.1,0.1,1.6c-0.1,0.1-0.2,0.2-0.4,0.2c-0.6,0.2-1.1,0.3-1.7,0.5
		c-0.7,0.2-1.4,0.3-2.1,0.4c-0.4,0.1-0.8,0.1-1.2,0.1c-0.1,0-0.2,0-0.3,0c-0.5,0.1-0.9,0.1-1.4,0c-0.1,0-0.2,0-0.3,0
		c-0.6,0-1.1-0.1-1.7-0.3c-0.5-0.1-1-0.3-1.4-0.6C14.1,52.6,13.7,52.5,13.5,52.3z"/>
	<path class="st1" d="M77.4,6.3c-0.1,0.1-0.1,0.1-0.2,0.2c-0.6,1.3-1.1,2.6-1.7,3.9c0,0.1,0,0.1-0.1,0.2c0,0.1,0,0.1,0.1,0.2
		c0,0,0,0,0,0c0.1,0.1,0.4,0.1,0.4,0.3c0,0.2-0.1,0.3-0.2,0.5c-0.2,0.4-0.1,0.4-0.5,0.2c-0.7-0.3-1.4-0.5-2-0.8
		c-0.1,0-0.2-0.1-0.2-0.1c-0.1,0-0.1-0.1-0.1-0.1c0-0.1,0.1-0.3,0.1-0.4c0-0.1,0.1-0.2,0.1-0.3c0.1-0.1,0.2,0,0.3,0c0,0,0.1,0,0.1,0
		c0.2,0,0.2,0,0.3-0.2c0-0.1,0-0.1,0.1-0.2c0.7-1.7,1.3-3.4,1.9-5.2c0,0,0-0.1,0-0.1C76,4.2,75.8,4.2,75.6,4c0,0,0-0.1,0-0.1
		c0.1-0.3,0.2-0.5,0.3-0.7c0.3,0,0.5,0.1,0.8,0.2c0.5,0.2,1,0.4,1.5,0.6c0.2,0.1,0.3,0.2,0.3,0.4c0.3,1.2,0.6,2.5,0.8,3.7
		c0.2,0.9,0.3,1.8,0.4,2.7c0,0.1,0,0.1,0,0.2c0.1,0,0.1-0.1,0.2-0.1c0.7-1.2,1.3-2.5,2-3.8C82,7,82,7,81.8,6.9
		c-0.2-0.1-0.4-0.1-0.5-0.3c-0.1-0.2,0.1-0.4,0.2-0.6c0-0.1,0.1-0.2,0.2-0.3c1,0.5,2,1.1,3.1,1.7c-0.1,0.3-0.3,0.5-0.4,0.7
		c0,0.1-0.1,0.1-0.2,0C84.1,8.1,84,8.1,83.9,8c-0.3-0.1-0.4-0.1-0.5,0.2c0,0.1-0.1,0.2-0.1,0.2c-1,1.7-2,3.4-3,5.1
		c-0.1,0.1-0.1,0.2-0.2,0.3c-0.1,0.1-0.1,0.1-0.3,0.1c-0.3-0.2-0.7-0.4-1-0.6c-0.1-0.1-0.2-0.2-0.2-0.3c0-0.4-0.1-0.7-0.1-1.1
		c-0.2-1.8-0.5-3.6-0.9-5.4C77.5,6.4,77.5,6.3,77.4,6.3z"/>
	<path class="st1" d="M58.2,0.4c0.1,0,0.3,0.1,0.4,0c0.3,0,0.7,0.1,1,0.2c0.7,0.3,1.2,0.7,1.2,1.5c0.1,0.8-0.1,1.5-0.7,2
		c-0.2,0.2-0.4,0.3-0.7,0.4c-0.1,0-0.2,0.1-0.3,0.1c0,0.1,0,0.1,0.1,0.1c0.3,0.1,0.5,0.4,0.7,0.7c0.2,0.5,0.5,0.9,0.7,1.4
		c0.1,0.1,0.1,0.2,0.2,0.4c0.1,0.2,0.2,0.3,0.4,0.3c0.1,0,0.1,0,0.2,0c0.1,0,0.1,0,0.1,0.1c0,0.1,0,0.2,0,0.3c0,0.7,0.1,0.6-0.6,0.6
		c-0.7,0-1.4,0-2.1,0c-0.1,0-0.1,0-0.2,0c-0.1,0-0.1,0-0.1-0.1c0-0.2,0-0.5,0-0.7c0-0.1,0.1-0.1,0.1-0.1c0.1,0,0.3,0,0.4-0.1
		c0.1,0,0.2-0.1,0.1-0.2c0-0.1,0-0.1-0.1-0.2c-0.2-0.4-0.5-0.8-0.7-1.2c-0.2-0.4-0.5-0.5-1-0.5c-0.4,0-0.7,0-1.1,0.1
		c-0.1,0-0.2,0.1-0.2,0.2c0,0.1,0,0.3,0,0.4c0,0.5,0.1,0.9,0.1,1.4c0,0.1,0.1,0.2,0.2,0.2c0.1,0,0.3,0,0.4,0.1c0,0.3,0,0.5,0.1,0.8
		c0,0.1,0,0.1-0.1,0.1c0,0-0.1,0-0.1,0c-0.8,0-1.6,0.1-2.4,0.2c-0.2,0-0.2,0-0.3-0.2c0-0.2,0-0.3-0.1-0.5c0,0,0-0.1,0-0.2
		c0.1,0,0.3-0.1,0.5-0.1c0.1,0,0.2-0.1,0.2-0.2c0-0.2,0-0.4,0-0.6c-0.1-1.2-0.3-2.3-0.4-3.5c-0.1-0.5-0.1-1.1-0.2-1.6
		c0-0.2,0-0.2-0.2-0.2c-0.2,0-0.4,0-0.6,0c-0.1-0.1-0.1-0.3-0.1-0.5c0-0.5-0.1-0.5,0.4-0.5c0.9-0.1,1.8-0.2,2.7-0.3
		c0.2,0,0.5,0,0.7,0C57.3,0.4,57.7,0.4,58.2,0.4z M57,1.5C57,1.5,57,1.4,57,1.5c-0.3,0-0.7,0-1,0c-0.1,0-0.2,0.1-0.2,0.2
		c0.1,0.8,0.1,1.5,0.2,2.3c0,0,0,0.1,0,0.1c0,0.1,0.1,0.1,0.2,0.1c0.4,0,0.9,0,1.3-0.1c0.3,0,0.6-0.1,0.9-0.2
		c0.3-0.2,0.6-0.5,0.7-0.9C59,2.9,59,2.6,59,2.3c-0.1-0.3-0.2-0.5-0.5-0.7c-0.2-0.1-0.4-0.2-0.6-0.2C57.5,1.5,57.2,1.5,57,1.5z"/>
	<path class="st1" d="M38.3,14.3c-0.1-0.1-0.2-0.2-0.2-0.3c-0.1-0.1-0.2-0.3-0.2-0.4c0-0.2,0.2-0.2,0.3-0.3c0.2-0.2,0.2-0.2,0.1-0.5
		c-0.2-0.4-0.5-0.8-0.7-1.2c-0.7-1.1-1.3-2.2-2-3.3c0-0.1-0.1-0.2-0.1-0.2c-0.1-0.2-0.1-0.2-0.3-0.1c-0.1,0.1-0.3,0.1-0.4,0.2
		c-0.1,0-0.1,0-0.2-0.1c-0.1-0.2-0.3-0.5-0.4-0.7c0.1-0.1,0.2-0.2,0.3-0.2c1.1-0.7,2.2-1.3,3.4-1.9c0.8-0.4,1.5-0.6,2.4-0.7
		c1.4-0.1,2.6,0.5,3.2,1.7c0.5,1,0.7,2,0.6,3.1c-0.1,0.9-0.5,1.6-1.1,2.3c-0.4,0.4-0.7,0.6-1.2,0.9c-1.1,0.6-2.2,1.1-3.3,1.8
		C38.4,14.3,38.3,14.3,38.3,14.3z M39.8,12.2c0.5-0.3,1-0.5,1.4-0.8c0.2-0.1,0.3-0.2,0.5-0.4c0.6-0.5,0.8-1.2,0.7-1.9
		c-0.1-0.7-0.3-1.4-0.7-2c-0.2-0.3-0.3-0.5-0.6-0.7c-0.4-0.3-0.8-0.5-1.3-0.5c-0.4,0-0.8,0.1-1.2,0.2c-0.5,0.2-1,0.5-1.5,0.7
		c0,0-0.1,0-0.1,0c0,0,0,0.1,0,0.1c0,0.1,0.1,0.2,0.1,0.3c0.8,1.5,1.6,3,2.4,4.5C39.6,12,39.7,12.1,39.8,12.2z"/>
	<path class="st1" d="M47.1,9.3c0.2,0,0.3-0.1,0.5-0.1c0.2,0,0.2,0,0.2,0.1c0.1,0.2,0.1,0.5,0.2,0.7c-0.1,0.1-0.1,0.1-0.2,0.1
		c-0.7,0.2-1.5,0.5-2.2,0.7c-0.2,0.1-0.2,0.1-0.3-0.1c-0.1-0.2-0.1-0.3-0.2-0.5c0-0.1,0-0.2,0.1-0.2c0.4-0.1,0.5-0.4,0.5-0.8
		c0-0.9,0-1.7,0.1-2.6c0.1-0.9,0.1-1.8,0.2-2.8c0-0.2,0.1-0.4,0-0.6c-0.2,0-0.4,0.1-0.5,0.1c-0.2,0-0.2,0-0.2-0.1
		C45.2,3,45.1,2.8,45,2.6c0-0.1,0-0.1,0.1-0.1c0,0,0.1,0,0.1-0.1C46.1,2.1,47,1.9,48,1.6c0.2-0.1,0.3,0,0.5,0.2
		c1.3,1.8,2.6,3.6,3.7,5.5c0.1,0.2,0.2,0.4,0.4,0.6c0.2,0.1,0.4,0,0.6,0c0.1,0.1,0.1,0.2,0.1,0.3c0,0.2,0.1,0.4,0.1,0.6
		C53.1,9,52.9,9,52.7,9c-0.7,0.1-1.5,0.3-2.2,0.4c-0.1,0-0.2,0-0.2-0.1c0-0.1-0.1-0.2-0.1-0.3c0-0.1-0.1-0.3,0-0.4
		c0.1-0.1,0.2-0.1,0.4-0.2c0,0,0.1,0,0.1,0c0.1-0.1,0.2-0.2,0.1-0.3c-0.1-0.1-0.1-0.2-0.2-0.3c-0.1-0.2-0.2-0.3-0.3-0.5
		c-0.1-0.1-0.1-0.1-0.3-0.1c-0.9,0.2-1.8,0.4-2.6,0.7c-0.1,0-0.2,0.1-0.2,0.2C47.1,8.5,47.1,8.8,47.1,9.3z M49.6,6.2
		c-0.1-0.1-0.1-0.3-0.2-0.4c-0.5-0.8-1.1-1.5-1.6-2.3c-0.1-0.1-0.1-0.1-0.2-0.2c0,0-0.1-0.1-0.1-0.1c-0.1,0-0.1,0.1-0.1,0.1
		c-0.1,0.9-0.2,1.7-0.3,2.6c0,0.2,0,0.5,0,0.7c0,0.1,0.1,0.1,0.1,0.1c0.3-0.1,0.7-0.2,1-0.3C48.8,6.4,49.2,6.3,49.6,6.2z"/>
	<path class="st1" d="M72.1,10.4c-0.2,0-0.3,0-0.4-0.1c-1.7-0.5-3.3-0.9-5-1.2c-0.1,0-0.2,0-0.3-0.1c-0.1,0-0.1-0.1-0.1-0.2
		c0-0.2,0.1-0.4,0.1-0.6c0-0.1,0.1-0.2,0.2-0.1c0,0,0.1,0,0.1,0c0.4,0,0.5,0,0.6-0.5c0.3-1.7,0.6-3.4,1-5.1c0.1-0.4,0.1-0.4-0.3-0.5
		c-0.1,0-0.2,0-0.3-0.1c-0.1,0-0.1-0.1-0.1-0.2c0-0.2,0.1-0.4,0.1-0.6C67.6,1,67.7,1,67.8,1c0.2,0,0.4,0.1,0.7,0.1
		c1.9,0.4,3.8,0.8,5.6,1.4c0.1,0,0.2,0.1,0.3,0.1c0,0,0.1,0.1,0.1,0.1c0,0,0,0.1,0,0.1c-0.2,0.5-0.3,1-0.5,1.4
		c0,0.1-0.1,0.2-0.2,0.1c-0.4-0.1-0.8-0.2-1.2-0.3c-0.1-0.1,0-0.2,0-0.3c0-0.1,0.1-0.2,0.1-0.3c0-0.1,0-0.2-0.1-0.3
		c-0.1,0-0.1-0.1-0.2-0.1C71.6,3,71,2.8,70.3,2.6c0,0,0,0,0,0c-0.2,0-0.2,0-0.3,0.2c-0.1,0.3-0.2,0.7-0.2,1
		c-0.1,0.2-0.1,0.5-0.2,0.7c0,0.1,0,0.2,0,0.3C70,4.9,70.4,5,70.8,5.1c0.6,0.2,1.3,0.4,1.9,0.5c0.1,0,0.1,0.1,0.1,0.2
		c-0.1,0.3-0.2,0.5-0.3,0.8c0,0.1-0.1,0.1-0.1,0.1c-0.1,0-0.1,0-0.2-0.1c-0.9-0.3-1.8-0.5-2.7-0.7c-0.2,0-0.2,0-0.3,0.2
		c-0.2,0.7-0.3,1.3-0.5,2c0,0.2,0,0.2,0.2,0.3c0.6,0.2,1.2,0.3,1.9,0.5c0.1,0,0.1,0,0.2,0c0.1,0,0.2,0,0.2-0.1
		c0.1-0.2,0.1-0.4,0.2-0.6c0-0.1,0.1-0.1,0.1-0.1c0.3,0.1,0.6,0.3,1,0.4c0.1,0,0.1,0.1,0.1,0.2C72.4,9.3,72.2,9.9,72.1,10.4z"/>
	<path class="st1" d="M40.2,119.3c-0.2-0.2-0.3-0.4-0.4-0.6c-0.2-0.3-0.3-0.7-0.3-1.1c0.1-0.7,0.4-1.1,1-1.4
		c0.4-0.2,0.8-0.3,1.2-0.2c0.8,0,1.6,0.3,2.2,0.8c0.2,0.2,0.4,0.4,0.6,0.6c0.4,0.7,0.3,1.4-0.2,2c-0.2,0.3-0.5,0.4-0.9,0.6
		c-0.2,0.1-0.4,0.1-0.6,0.2c0,0.1,0.1,0.2,0.1,0.2c0.2,0.2,0.3,0.4,0.5,0.6c0.9,1.4-0.1,2.9-1.6,3c-0.6,0-1.2,0-1.7-0.2
		c-0.5-0.2-1.1-0.4-1.5-0.8c-0.3-0.2-0.5-0.4-0.7-0.7c-0.6-0.8-0.4-1.9,0.4-2.5c0.4-0.3,1-0.5,1.5-0.6
		C39.9,119.3,40,119.3,40.2,119.3z M40.9,122.9c0.5,0,0.8-0.2,1-0.6c0.1-0.3,0.1-0.6,0-0.9c-0.1-0.3-0.3-0.5-0.5-0.7
		c-0.5-0.5-0.3-0.5-1-0.4c-0.3,0-0.6,0.2-0.9,0.4c-0.5,0.4-0.5,1-0.1,1.5C39.8,122.7,40.4,122.8,40.9,122.9z M41.1,118
		c0,0.1,0,0.2,0,0.3c0.1,0.4,0.4,0.7,0.7,1c0,0,0.1,0.1,0.2,0c0.4-0.1,0.9-0.3,1.2-0.6c0.3-0.4,0.3-0.9-0.1-1.2
		c-0.3-0.2-0.6-0.4-0.9-0.4C41.5,117,41.1,117.4,41.1,118z"/>
	<path class="st1" d="M82.9,116.5c0-1.1,0.4-2,1.3-2.6c0.5-0.3,1.1-0.6,1.8-0.6c0.6,0,1.1,0.1,1.5,0.4c0.2,0.1,0.4,0.3,0.6,0.5
		c0.8,0.8,1.4,1.8,1.8,2.9c0.2,0.5,0.2,1,0.2,1.5c-0.1,0.4-0.2,0.8-0.5,1.1c-0.7,0.9-1.7,1.5-2.9,1.6c-0.7,0.1-1.4-0.1-1.9-0.6
		c-0.3-0.2-0.5-0.5-0.7-0.8c-0.5-0.8-0.9-1.7-1.1-2.7C82.9,117.1,82.9,116.8,82.9,116.5z M84.4,116.1c0,0.1,0,0.2,0,0.3
		c0.2,1.1,0.7,2.1,1.4,3c0.1,0.2,0.3,0.3,0.4,0.4c0.4,0.3,0.9,0.4,1.3,0.2c0.1-0.1,0.2-0.1,0.4-0.2c0.5-0.3,0.7-0.8,0.6-1.4
		c0-0.3-0.1-0.5-0.2-0.8c-0.3-0.8-0.7-1.5-1.2-2.2c-0.2-0.2-0.4-0.4-0.6-0.6c-0.4-0.3-0.9-0.3-1.4-0.1
		C84.6,115.1,84.4,115.5,84.4,116.1z"/>
	<path class="st1" d="M69.8,121.7c0-0.4,0-0.9,0.2-1.3c0.3-0.9,0.9-1.6,1.8-1.9c0.4-0.1,0.8-0.2,1.3-0.2c0.7,0,1.3,0.3,1.8,0.7
		c0.2,0.2,0.4,0.4,0.5,0.6c0.7,1.2,1.1,2.4,1.1,3.8c0,1.3-0.6,2.1-1.8,2.6c-0.7,0.3-1.4,0.4-2.1,0.3c-0.7-0.1-1.3-0.4-1.8-1
		c-0.3-0.4-0.5-0.8-0.6-1.2C70,123.4,69.8,122.6,69.8,121.7z M71.4,121.3c0,0.6,0.1,1.1,0.2,1.6c0.1,0.4,0.2,0.8,0.3,1.2
		c0.1,0.3,0.3,0.6,0.5,0.8c0.3,0.3,0.6,0.4,1,0.4c0.2,0,0.4-0.1,0.6-0.1c0.4-0.2,0.7-0.5,0.8-0.9c0.1-0.3,0.1-0.6,0.1-0.9
		c-0.1-0.9-0.3-1.8-0.7-2.6c-0.1-0.3-0.3-0.5-0.5-0.7c-0.7-0.8-2-0.4-2.2,0.5C71.4,120.7,71.4,121.1,71.4,121.3z"/>
	<path class="st1" d="M57.9,123.1c0,0.7-0.1,1.4-0.2,2c-0.1,0.2-0.1,0.4-0.2,0.6c-0.4,1.1-1.3,1.6-2.4,1.7c-0.7,0.1-1.3,0-2-0.3
		c-0.9-0.4-1.5-1.1-1.6-2.1c-0.1-0.8,0-1.6,0.1-2.4c0.1-0.5,0.2-0.9,0.4-1.3c0.1-0.3,0.3-0.6,0.5-0.9c0.6-0.8,1.4-1.1,2.3-1.1
		c0.3,0,0.7,0,1,0.1c0.8,0.2,1.4,0.7,1.7,1.5c0.2,0.5,0.3,1.1,0.3,1.7C57.9,122.8,57.9,122.9,57.9,123.1z M56.3,122.7
		c0-0.2,0-0.4,0-0.5c0-0.3-0.1-0.7-0.2-1c-0.2-0.4-0.5-0.7-0.9-0.7c-0.6-0.1-1.1,0.1-1.4,0.6c-0.2,0.3-0.3,0.5-0.4,0.8
		c-0.2,0.6-0.3,1.2-0.4,1.8c0,0.4-0.1,0.9,0,1.3c0.2,0.7,0.5,1,1.2,1.1c0.6,0.1,1.1-0.1,1.4-0.6c0.2-0.2,0.3-0.5,0.3-0.8
		C56.2,124.1,56.3,123.4,56.3,122.7z"/>
	<path class="st1" d="M78.3,125c-0.1-0.2-0.2-0.5-0.3-0.7c0-0.1,0-0.1,0-0.2c0-0.1,0.1-0.2,0.1-0.3c0.6-1.1,1.1-2.2,1.6-3.4
		c0.2-0.4,0.4-0.8,0.4-1.3c0.1-0.3,0-0.6-0.1-0.9c-0.2-0.4-0.6-0.6-1-0.6c-0.5,0-1,0.2-1.4,0.5c-0.1,0.1-0.2,0.2-0.1,0.4
		c0.1,0.2,0.1,0.5,0.2,0.7c0,0.1,0,0.1-0.1,0.2c0,0,0,0,0,0c-0.3,0.1-0.7,0.2-1,0.2c-0.2-0.3-0.2-0.7-0.4-1c0-0.1-0.1-0.2-0.1-0.3
		c-0.1-0.4-0.1-0.4,0.2-0.7c0.8-0.6,1.6-1,2.6-1.2c0.4-0.1,0.8-0.1,1.2,0c0.8,0.2,1.4,0.8,1.6,1.7c0.1,0.4,0,0.8,0,1.2
		c-0.1,0.4-0.2,0.7-0.4,1c-0.4,0.9-0.8,1.8-1.2,2.7c0,0.1-0.1,0.2-0.1,0.3c0.1,0.1,0.2,0,0.3,0c1.1-0.4,2.1-0.8,3.2-1.2
		c0.5-0.2,0.4-0.3,0.6,0.2c0.1,0.1,0.1,0.3,0.2,0.4c0,0.1,0,0.2-0.1,0.2c-0.7,0.3-1.5,0.6-2.2,0.9c-1.1,0.4-2.2,0.8-3.4,1.2
		C78.6,125,78.4,125,78.3,125z"/>
	<path class="st1" d="M46.2,124.6c0.1,0,0.2,0.1,0.4,0.1c1.1,0.3,2.1,0.5,3.2,0.7c0.1,0,0.2,0.1,0.3,0.1c0.1,0,0.2,0.1,0.1,0.2
		c0,0.2-0.1,0.4-0.1,0.7c-0.1,0.2-0.1,0.2-0.3,0.2c-2-0.4-3.9-0.9-5.8-1.5c-0.1,0-0.1,0-0.2-0.1c-0.1,0-0.1-0.1-0.1-0.1
		c0,0,0-0.1,0-0.1c0.1-0.2,0.1-0.4,0.2-0.6c0.1-0.2,0.4-0.2,0.6-0.3c1-0.5,2-1.1,3-1.7c0.3-0.2,0.7-0.4,1-0.7
		c0.3-0.2,0.5-0.5,0.6-0.9c0.1-0.5,0-0.9-0.5-1.2c-0.4-0.3-0.9-0.4-1.5-0.4c-0.2,0-0.2,0.1-0.3,0.2c-0.1,0.2-0.1,0.4-0.2,0.6
		c0,0.1-0.1,0.2-0.2,0.1c-0.3-0.1-0.7-0.2-1-0.4c0-0.3,0.2-0.7,0.3-1c0.1-0.2,0.1-0.4,0.2-0.6c0-0.1,0.1-0.2,0.2-0.2
		c0.2,0,0.3-0.1,0.5-0.1c0.9,0,1.7,0.1,2.5,0.4c0.3,0.1,0.5,0.2,0.8,0.4c1,0.7,1.1,1.8,0.7,2.6c-0.1,0.3-0.3,0.6-0.6,0.8
		c-0.3,0.3-0.6,0.5-1,0.7c-0.8,0.5-1.7,1-2.5,1.5C46.4,124.4,46.3,124.4,46.2,124.6z"/>
	<path class="st4" d="M106,56.1c0,0.1-0.1,0.1-0.2,0.1c-0.9-0.1-1.6,0.2-2.4,0.6c-0.8,0.4-1.5,0.9-2.1,1.5c-0.2,0.2-0.4,0.4-0.6,0.7
		c-0.2,0.1-0.4,0.3-0.6,0.5c-0.4,0.3-0.8,0.5-1.2,0.7c-0.2,0.1-0.4,0.1-0.5,0.2c-0.3,0.1-0.6,0.1-1,0.1c-0.1-0.4,0-0.8,0-1.2
		c0-0.6,0-1.3,0.1-1.9c0-0.5,0-1,0-1.6c0.4-0.2,0.9-0.3,1.4-0.4c0.2,0,0.4-0.1,0.7-0.1c0.3-0.1,0.5-0.1,0.8-0.1c0.2,0,0.5,0,0.7-0.1
		c0.2,0,0.3,0,0.5,0c0.1,0,0.2,0.1,0.4,0.1c1.3,0,2.5,0.3,3.7,0.8C105.7,56,105.8,56.1,106,56.1z"/>
	<path class="st3" d="M102.1,94c-0.1-0.1,0-0.3,0.1-0.4c0.2-0.7,0.4-1.4,0.6-2.1c0.1-0.2,0.1-0.3-0.1-0.4c-0.6-0.5-1.2-0.9-1.9-1.4
		c0,0-0.1-0.1-0.1-0.1c0,0,0-0.1,0-0.1c0,0,0-0.1,0.1-0.1c0.1,0,0.2,0,0.4,0c0.7,0,1.4,0,2.1,0c0.3,0,0.3,0,0.4-0.3
		c0.2-0.6,0.4-1.2,0.6-1.9c0.1-0.2,0.1-0.3,0.2-0.5c0,0,0,0,0.1,0c0,0,0.1,0,0.1,0c0,0.1,0.1,0.2,0.1,0.2c0.2,0.6,0.4,1.3,0.7,1.9
		c0.1,0.4,0.1,0.4,0.6,0.4c0.7,0,1.3,0,2,0c0.1,0,0.3,0,0.4,0c0,0.2-0.2,0.2-0.3,0.3c-0.5,0.4-1,0.8-1.5,1.2c-0.1,0-0.1,0.1-0.2,0.1
		c-0.2,0.1-0.2,0.3-0.2,0.5c0.1,0.4,0.2,0.8,0.4,1.2c0.1,0.3,0.2,0.6,0.3,0.9c0,0.1,0.1,0.2,0,0.3c-0.1,0.1-0.2,0-0.2-0.1
		c-0.6-0.4-1.2-0.8-1.8-1.2c0,0-0.1,0-0.1-0.1c-0.2-0.1-0.3-0.1-0.4,0c-0.5,0.4-1,0.7-1.5,1.1C102.5,93.7,102.3,93.9,102.1,94z"/>
	<path class="st3" d="M90.6,13.1c0.2,0.6,0.4,1.2,0.6,1.8c0.1,0.2,0.1,0.3,0.2,0.5c0.2,0.5,0.2,0.4,0.6,0.4c0.6,0,1.2,0,1.8,0
		c0,0,0.1,0,0.1,0c0.1,0,0.3-0.1,0.5,0.1c0,0.2-0.2,0.2-0.3,0.3c-0.6,0.4-1.1,0.9-1.7,1.3c-0.1,0.1-0.2,0.2-0.1,0.3
		c0.2,0.6,0.3,1.1,0.5,1.7c0,0.1,0.1,0.2,0.1,0.3c0,0.2,0.2,0.3,0.1,0.5c-0.2,0-0.3-0.2-0.5-0.3c-0.5-0.4-1.1-0.7-1.6-1.1
		c-0.2-0.1-0.3-0.1-0.5,0c-0.5,0.4-1.1,0.7-1.6,1.1c-0.1,0.1-0.2,0.2-0.3,0.2c0,0-0.1,0.1-0.2,0c-0.1,0,0-0.1,0-0.2
		c0-0.2,0.1-0.3,0.1-0.5c0.2-0.5,0.3-1.1,0.5-1.6c0-0.1,0.1-0.2,0.1-0.3c0-0.1,0-0.3-0.1-0.4c-0.2-0.1-0.4-0.3-0.6-0.4
		c-0.4-0.3-0.9-0.6-1.3-1c0,0-0.1-0.1-0.1-0.1c0,0,0-0.1,0.1-0.1c0.1,0,0.2,0,0.3,0c0.6,0,1.3,0,1.9,0c0.1,0,0.2,0,0.3,0
		c0.1,0,0.2-0.1,0.2-0.1c0-0.1,0.1-0.2,0.1-0.3c0.2-0.7,0.5-1.3,0.7-2C90.5,13.3,90.5,13.2,90.6,13.1z"/>
	<path class="st3" d="M93.1,110.3c0-0.2,0-0.4,0.1-0.5c0.2-0.6,0.4-1.3,0.6-1.9c0.1-0.3,0.1-0.3-0.2-0.5c-0.6-0.5-1.2-0.9-1.8-1.4
		c0,0-0.1-0.1-0.1-0.1c0,0,0-0.1,0-0.1c0.1-0.1,0.3-0.1,0.4-0.1c0.6,0,1.2,0,1.8,0c0.1,0,0.2,0,0.3,0c0.1,0,0.2-0.1,0.2-0.2
		c0-0.1,0.1-0.2,0.1-0.3c0.2-0.6,0.4-1.3,0.7-1.9c0-0.1,0.1-0.1,0.1-0.2c0,0,0,0,0.1,0c0,0,0,0,0,0c0,0.1,0.1,0.2,0.1,0.3
		c0.2,0.7,0.5,1.4,0.7,2c0.1,0.2,0.2,0.3,0.4,0.3c0.7,0,1.4,0,2.1,0c0.2,0,0.3,0,0.5,0.1c-0.1,0.2-0.3,0.3-0.5,0.4
		c-0.5,0.4-1,0.8-1.5,1.1c-0.2,0.2-0.3,0.2-0.2,0.5c0.2,0.7,0.4,1.3,0.6,2c0,0.1,0.1,0.2,0.1,0.3c0,0,0,0.1,0,0.1c0,0-0.1,0-0.1,0
		c-0.3-0.2-0.7-0.5-1-0.7c-0.3-0.2-0.6-0.4-1-0.7c-0.2-0.2-0.3-0.1-0.5,0c-0.6,0.4-1.2,0.9-1.8,1.3
		C93.3,110.3,93.2,110.3,93.1,110.3L93.1,110.3z"/>
	<path class="st3" d="M26.4,20.4c0.1-0.4,0.2-0.7,0.3-1.1c0.1-0.5,0.3-1,0.5-1.5c0.1-0.2,0-0.2-0.1-0.3c-0.6-0.5-1.2-0.9-1.8-1.4
		c-0.1-0.1-0.1-0.1-0.2-0.2c0-0.1,0.1-0.1,0.2-0.1c0.8-0.1,1.6-0.1,2.3-0.1c0.3,0,0.3,0,0.4-0.3c0.2-0.6,0.4-1.2,0.6-1.9
		c0-0.1,0.1-0.3,0.2-0.4c0,0,0-0.1,0.1-0.1c0,0,0.1,0.1,0.1,0.1c0,0.1,0.1,0.2,0.1,0.3c0.2,0.6,0.5,1.3,0.7,1.9
		c0.1,0.2,0.1,0.2,0.3,0.3c0,0,0.1,0,0.1,0c0.8,0,1.6,0,2.4,0.1c0,0.1-0.1,0.2-0.2,0.2c-0.6,0.4-1.1,0.9-1.7,1.3
		c-0.1,0-0.1,0.1-0.2,0.1c-0.1,0.1-0.1,0.1-0.1,0.2c0,0.1,0,0.2,0.1,0.3c0.2,0.7,0.4,1.3,0.6,2c0,0.1,0,0.1,0,0.2
		c0,0-0.1,0.1-0.1,0.1c-0.1-0.1-0.2-0.1-0.3-0.2c-0.6-0.4-1.2-0.8-1.7-1.2c-0.2-0.1-0.3-0.1-0.4,0c-0.5,0.4-1,0.7-1.5,1
		C26.9,20.1,26.7,20.2,26.4,20.4z"/>
	<path class="st3" d="M14.2,94.2c-0.1-0.1,0-0.2,0-0.3c0.2-0.7,0.4-1.3,0.6-2c0-0.1,0-0.1,0.1-0.2c0.1-0.2,0-0.3-0.1-0.4
		c-0.3-0.2-0.6-0.5-0.9-0.7c-0.3-0.2-0.6-0.4-0.8-0.6c-0.1-0.1-0.2-0.1-0.2-0.2c0,0-0.1-0.1,0-0.1c0,0,0,0,0.1,0c0.1,0,0.2,0,0.3,0
		c0.6,0,1.3,0,1.9,0c0.1,0,0.2,0,0.3,0c0.2,0,0.3-0.1,0.4-0.3c0.2-0.6,0.4-1.1,0.6-1.7c0.1-0.2,0.1-0.5,0.3-0.7
		c0.3,0.2,0.2,0.5,0.3,0.7c0.2,0.5,0.4,1.1,0.6,1.6c0,0,0,0.1,0,0.1c0.1,0.1,0.1,0.2,0.3,0.2c0.1,0,0.2,0,0.3,0c0.6,0,1.3,0,1.9,0
		c0.1,0,0.2,0,0.3,0c0,0,0.1,0,0.1,0c0,0,0,0.1,0,0.1c-0.2,0.2-0.4,0.3-0.6,0.5c-0.4,0.3-0.9,0.7-1.3,1c-0.2,0.2-0.2,0.2-0.2,0.5
		c0.2,0.7,0.4,1.4,0.6,2.1c0,0.1,0,0.2,0.1,0.3c0,0,0,0,0,0c0,0-0.1,0-0.1,0c-0.1,0-0.1-0.1-0.2-0.1c-0.6-0.4-1.1-0.8-1.7-1.2
		c-0.1-0.1-0.2-0.1-0.3-0.2c-0.1-0.1-0.2-0.1-0.3,0c-0.1,0.1-0.2,0.1-0.3,0.2c-0.5,0.4-1,0.7-1.5,1.1C14.4,94.1,14.3,94.2,14.2,94.2
		z"/>
	<path class="st3" d="M25.7,103c0.1,0.3,0.2,0.6,0.3,0.9c0.2,0.5,0.4,1,0.5,1.6c0,0,0,0.1,0,0.1c0.1,0.1,0.1,0.2,0.3,0.2
		c0.3,0,0.6,0,0.9,0c0.4,0,0.9,0,1.3,0c0.1,0,0.1,0,0.2,0c0,0,0.1,0,0.1,0.1c0,0,0,0.1,0,0.1c-0.3,0.2-0.5,0.4-0.8,0.6
		c-0.4,0.3-0.8,0.6-1.1,0.9c0,0,0,0-0.1,0.1c-0.1,0.1-0.2,0.2-0.1,0.4c0.1,0.4,0.2,0.8,0.4,1.2c0.1,0.4,0.2,0.8,0.4,1.2
		c0,0,0,0.1,0,0.1c0,0-0.1,0-0.1,0c-0.3-0.2-0.6-0.4-0.9-0.6c-0.4-0.3-0.8-0.5-1.1-0.8c-0.1-0.1-0.3-0.1-0.4,0
		c-0.4,0.3-0.8,0.6-1.2,0.9c-0.2,0.2-0.4,0.3-0.7,0.5c-0.1,0-0.1,0.1-0.2,0.1c-0.1-0.1,0-0.2,0-0.3c0.2-0.6,0.4-1.3,0.6-1.9
		c0,0,0-0.1,0-0.1c0.2-0.4,0-0.4-0.2-0.6c-0.1-0.1-0.3-0.2-0.4-0.3c-0.4-0.3-0.9-0.7-1.3-1c-0.1,0-0.1-0.1-0.2-0.2c0,0,0-0.1,0-0.1
		c0.1,0,0.2,0,0.3,0c0.7,0,1.3,0,2,0c0.1,0,0.1,0,0.2,0c0.3,0,0.3,0,0.4-0.3c0.1-0.4,0.3-0.8,0.4-1.2c0.1-0.4,0.2-0.7,0.4-1.1
		C25.6,103.1,25.6,103.1,25.7,103z"/>
	<path class="st3" d="M99.8,35.7c-0.1-0.1,0-0.2,0-0.3c0.2-0.7,0.4-1.3,0.6-2c0-0.1,0-0.1,0.1-0.2c0-0.2,0-0.3-0.2-0.4
		c-0.6-0.5-1.3-1-1.9-1.4c0,0-0.1-0.1-0.1-0.1c0-0.1,0.1-0.1,0.1-0.1c0.2,0,0.4,0,0.6,0c0.6,0,1.3-0.1,1.9-0.1
		c0.1,0,0.2-0.1,0.3-0.2c0.3-0.7,0.5-1.5,0.8-2.2c0-0.1,0-0.1,0.1-0.2c0.1,0,0.1,0.1,0.1,0.2c0.2,0.7,0.5,1.3,0.7,2
		c0,0.1,0,0.1,0.1,0.2c0.1,0.2,0.2,0.2,0.4,0.3c0.8,0.1,1.6,0.1,2.4,0.1c0.1,0,0.1,0,0.2,0c0,0.1-0.1,0.2-0.2,0.2
		c-0.5,0.4-1.1,0.8-1.6,1.3c0,0-0.1,0-0.1,0c-0.3,0.2-0.3,0.2-0.2,0.6c0.2,0.7,0.4,1.5,0.7,2.2c0,0,0,0.1,0,0.2
		c-0.1,0-0.2,0-0.3-0.1c-0.5-0.4-1.1-0.8-1.6-1.1c-0.6-0.4-0.4-0.4-1,0c-0.5,0.4-1.1,0.7-1.6,1.1C99.9,35.7,99.9,35.7,99.8,35.7z"/>
	<path class="st3" d="M20.9,35.8c-0.2,0-0.3-0.1-0.4-0.2c-0.6-0.4-1.2-0.8-1.7-1.2c-0.1-0.1-0.2-0.1-0.4,0c-0.7,0.5-1.3,0.9-2,1.4
		c-0.1,0-0.1,0.1-0.2,0.1c-0.1-0.1,0-0.2,0-0.3c0.2-0.7,0.4-1.4,0.6-2.1c0-0.1,0-0.1,0.1-0.2c0-0.1,0-0.2-0.1-0.3
		c-0.2-0.2-0.4-0.3-0.7-0.5c-0.4-0.3-0.8-0.6-1.2-0.9c-0.1-0.1-0.2-0.1-0.2-0.2c0-0.1,0.1-0.1,0.2-0.1c0.4,0,0.8,0,1.2,0
		c0.4,0,0.9-0.1,1.3-0.1c0.1,0,0.2-0.1,0.2-0.2c0-0.1,0.1-0.2,0.1-0.3c0.2-0.6,0.4-1.2,0.6-1.9c0-0.1,0.1-0.2,0.1-0.2
		c0-0.1,0.1-0.1,0.1,0c0,0.1,0.1,0.2,0.1,0.3c0.2,0.5,0.4,1,0.5,1.6c0,0.1,0.1,0.2,0.1,0.3c0.1,0.3,0.1,0.3,0.5,0.4
		c0.8,0.1,1.6,0.1,2.3,0.1c0,0,0.1,0,0.1,0c0,0,0,0.1,0,0.1c0,0.1-0.1,0.1-0.2,0.2c-0.6,0.5-1.2,0.9-1.8,1.4
		c-0.2,0.1-0.2,0.3-0.1,0.5c0.2,0.7,0.4,1.3,0.6,2C20.8,35.5,20.9,35.6,20.9,35.8L20.9,35.8z"/>
	<path class="st3" d="M14.4,77c-0.2-0.1-0.4-0.2-0.6-0.3c-0.5-0.3-1-0.7-1.4-1c-0.3-0.3-0.4-0.2-0.7,0c-0.6,0.4-1.2,0.8-1.8,1.2
		c0,0-0.1,0.1-0.2,0.1c0,0,0,0,0,0c0,0,0,0,0-0.1c0-0.2,0.1-0.3,0.1-0.5c0.2-0.6,0.4-1.3,0.6-1.9c0.1-0.2,0.1-0.2-0.1-0.4
		c-0.6-0.5-1.3-1-1.9-1.5c0,0-0.1-0.1-0.1-0.1c0-0.1,0.1-0.1,0.2-0.1c0.7,0,1.4,0,2.1,0c0.1,0,0.2,0,0.2,0c0.3,0,0.4-0.1,0.5-0.3
		c0.1-0.2,0.1-0.3,0.2-0.5c0.2-0.6,0.4-1.2,0.7-1.9c0.1,0.2,0.2,0.3,0.2,0.5c0.2,0.6,0.4,1.1,0.6,1.7c0.2,0.5,0.2,0.5,0.8,0.5
		c0.7,0,1.4,0,2.1,0c0.1,0,0.1,0,0.2,0c0,0,0,0.1,0,0.1c0,0.1-0.1,0.1-0.2,0.2c-0.6,0.5-1.2,0.9-1.8,1.4c-0.2,0.1-0.3,0.3-0.2,0.5
		c0.2,0.6,0.4,1.3,0.6,1.9C14.3,76.6,14.4,76.7,14.4,77z"/>
	<path class="st3" d="M106.7,76.8c0-0.1,0-0.3,0.1-0.4c0.2-0.7,0.4-1.3,0.6-2c0.1-0.3,0.1-0.3-0.2-0.5c-0.4-0.3-0.9-0.7-1.3-1
		c-0.2-0.2-0.5-0.3-0.7-0.5c0-0.1,0.1-0.1,0.2-0.1c0.7,0,1.4,0,2.1,0c0.1,0,0.2,0,0.3,0c0.1,0,0.2,0,0.2-0.2
		c0.1-0.1,0.1-0.2,0.1-0.4c0.2-0.6,0.4-1.2,0.6-1.8c0-0.1,0.1-0.2,0.1-0.3c0,0,0,0,0.1,0c0,0,0.1,0,0.1,0c0.1,0.2,0.1,0.4,0.2,0.5
		c0.2,0.5,0.3,1,0.5,1.5c0,0.1,0.1,0.2,0.1,0.3c0.1,0.2,0.2,0.2,0.4,0.2c0.7,0,1.4,0,2.1,0c0.1,0,0.3,0,0.4,0c0,0.1-0.1,0.2-0.2,0.2
		c-0.5,0.4-1.1,0.8-1.6,1.2c0,0-0.1,0.1-0.1,0.1c-0.2,0.2-0.3,0.2-0.2,0.6c0.2,0.6,0.4,1.3,0.6,1.9c0,0.1,0.1,0.3,0.1,0.4l0,0
		c-0.2,0-0.3-0.1-0.4-0.2c-0.5-0.4-1-0.7-1.6-1.1c-0.1-0.1-0.2-0.1-0.2-0.2c-0.1-0.1-0.2-0.1-0.3,0c-0.5,0.4-1,0.7-1.6,1.1
		c-0.1,0.1-0.3,0.2-0.4,0.3C106.8,76.8,106.7,76.8,106.7,76.8L106.7,76.8z"/>
	<path class="st1" d="M34.2,114.6c0-0.3,0-0.5,0-0.8c0-0.1,0-0.2,0.2-0.2c0.1,0,0.1,0,0.2,0c0.8,0.1,1.6,0.1,2.3,0
		c0.2,0,0.4,0,0.6,0.2c0.2,0.1,0.5,0.3,0.7,0.4c0.1,0,0.1,0.1,0.1,0.2c-0.1,0.1-0.1,0.3-0.2,0.4c-0.9,1.7-1.8,3.4-2.6,5.1
		c0,0.1-0.1,0.1-0.1,0.2c-0.1,0.2-0.1,0.2,0.1,0.3c0.3,0.2,0.7,0.4,1,0.5c0.4,0.2,0.3,0.2,0.2,0.5c0,0.1-0.1,0.2-0.1,0.3
		c-0.1,0.3-0.1,0.3-0.4,0.1c-1.4-0.7-2.8-1.4-4.2-2.2c-0.1,0-0.1-0.1-0.2-0.2c0-0.1,0.1-0.1,0.1-0.2c0.1-0.2,0.1-0.4,0.3-0.5
		c0.2-0.1,0.3,0.1,0.5,0.2c0.3,0.1,0.5,0.3,0.8,0.4c0.2,0.1,0.3,0.1,0.4-0.1c0-0.1,0.1-0.1,0.1-0.2c0.7-1.3,1.5-2.7,2.2-4
		c0-0.1,0.1-0.1,0.1-0.2c-0.1-0.1-0.2,0-0.4,0c-0.1,0-0.3,0-0.4,0c-0.1,0-0.2,0-0.4,0c-0.1,0-0.3,0-0.4,0
		C34.6,114.7,34.4,114.7,34.2,114.6z"/>
	<path class="st1" d="M62.3,7.6c0.2-0.1,0.3,0,0.5-0.1c0.2,0,0.2-0.1,0.3-0.2c0-0.1,0-0.3,0.1-0.4c0.1-0.8,0.1-1.7,0.2-2.5
		c0.1-0.9,0.2-1.8,0.2-2.6c0-0.1,0-0.1,0-0.2c-0.2-0.1-0.5-0.1-0.8-0.2c0-0.3,0-0.6,0.1-0.9c0.1,0,0.1,0,0.2,0
		c1,0.1,2.1,0.2,3.1,0.3c0.2,0,0.2,0.1,0.2,0.2c0,0.1,0,0.1,0,0.2c0,0.2,0,0.4-0.1,0.5c-0.1,0.1-0.3,0-0.4,0c-0.3,0-0.4,0.1-0.4,0.4
		c-0.1,0.4-0.1,0.7-0.1,1.1c-0.2,1.4-0.4,2.8-0.5,4.2c0,0.1,0,0.2,0,0.3c0,0.1,0,0.1,0.1,0.2c0.1,0,0.2,0.1,0.3,0.1
		c0.2,0,0.2,0.1,0.2,0.3c0,0,0,0,0,0c0,0.2-0.1,0.4-0.1,0.6c-0.2,0.1-0.4,0-0.6,0c-0.7-0.1-1.4-0.1-2.1-0.2c-0.2,0-0.2,0-0.2-0.2
		C62.2,8.1,62.3,7.9,62.3,7.6z"/>
	<path class="st1" d="M62.3,124.7c-0.1,0-0.1,0-0.2,0c-1,0-1.9,0-2.9,0c-0.1,0-0.2,0-0.4,0c-0.1,0-0.1-0.1-0.1-0.1
		c0-0.3,0-0.6,0-0.9c0-0.1,0-0.1,0.1-0.1c0.1,0,0.1,0,0.2,0c1,0,2,0.1,3.1,0c0,0,0.1,0,0.1,0c0.1,0,0.2,0,0.2,0.1
		C62.3,124,62.3,124.4,62.3,124.7z"/>
	<path class="st1" d="M89.6,121.6c0.2,0,0.1,0.2,0.2,0.3c0,0,0.1,0,0.1,0c0.1-0.1,0.1-0.3,0.2-0.3c0.1,0,0.1,0.2,0.1,0.3
		c0,0.1,0,0.1,0,0.2c0,0,0,0-0.1,0c0,0,0,0,0-0.1c0,0,0-0.1,0-0.1c0,0-0.1,0-0.1,0.1c-0.1,0.1-0.1,0.1-0.2,0c0,0,0-0.1-0.1-0.1
		c0,0,0,0.1-0.1,0.1c0,0,0,0-0.1,0c0,0-0.1,0-0.1-0.1c0-0.1,0-0.3,0-0.4C89.6,121.7,89.6,121.6,89.6,121.6z"/>
	<path class="st1" d="M89.6,121.6c0,0-0.1,0.1-0.1,0.1c-0.1,0-0.2,0-0.2,0.1c0,0.1,0,0.2,0,0.3c0,0,0,0-0.1,0c0,0-0.1,0-0.1,0
		c0-0.1,0-0.1,0-0.2c0-0.1,0-0.2-0.1-0.2c-0.1-0.1,0-0.2,0.1-0.2C89.3,121.6,89.5,121.6,89.6,121.6z"/>
	<path class="st3" d="M106.7,76.8C106.7,76.8,106.6,76.9,106.7,76.8C106.6,76.9,106.6,76.8,106.7,76.8
		C106.7,76.8,106.7,76.8,106.7,76.8z"/>
	<path class="st3" d="M111.3,76.8C111.3,76.8,111.4,76.9,111.3,76.8C111.4,76.9,111.3,76.8,111.3,76.8
		C111.3,76.8,111.3,76.8,111.3,76.8z"/>
	<path class="st1" d="M93.1,110.3C93.1,110.3,93.1,110.4,93.1,110.3C93.1,110.4,93.1,110.3,93.1,110.3
		C93.1,110.3,93.1,110.3,93.1,110.3C93.1,110.3,93.1,110.3,93.1,110.3z"/>
	<path class="st3" d="M20.9,35.8C20.9,35.8,20.9,35.8,20.9,35.8C20.9,35.8,20.9,35.8,20.9,35.8C20.9,35.8,20.9,35.8,20.9,35.8
		C20.9,35.8,20.9,35.8,20.9,35.8z"/>
	<path class="st3" d="M54.8,56.6c0-1.3,0.1-2.5,0.4-3.7c0.2-0.6,0.4-1.1,0.7-1.7c0.8-1.5,2-2.3,3.7-2.6c0.8-0.1,1.6-0.1,2.3,0.1
		c1.1,0.3,1.9,0.9,2.5,1.8c0.5,0.7,0.8,1.5,1,2.3c0.2,0.8,0.3,1.7,0.3,2.5c0.1,1.3,0,2.7-0.2,4c-0.1,0.8-0.4,1.5-0.7,2.2
		c-0.8,1.7-2.2,2.5-4,2.6c-0.7,0-1.3,0-2-0.1c-1.3-0.3-2.3-1.1-3-2.3c-0.4-0.8-0.6-1.6-0.8-2.4C54.8,58.6,54.8,57.6,54.8,56.6z
		 M63,56.4c0-0.5,0-1.1-0.1-1.7c-0.1-0.6-0.1-1.2-0.3-1.8c-0.1-0.4-0.3-0.7-0.5-1c-0.4-0.5-0.9-0.8-1.6-0.9c-0.1,0-0.3,0-0.4,0
		c-0.6,0-1.1,0.3-1.5,0.7c-0.2,0.3-0.4,0.6-0.5,0.9c-0.2,0.6-0.4,1.3-0.4,2c-0.1,1.1-0.1,2.1-0.1,3.2c0,0.8,0.1,1.6,0.4,2.4
		c0.1,0.4,0.3,0.9,0.6,1.2c0.2,0.3,0.5,0.5,0.8,0.6c1.1,0.4,2.3,0,2.8-1c0.1-0.1,0.1-0.2,0.2-0.4c0.2-0.4,0.3-0.8,0.3-1.2
		C62.9,58.5,62.9,57.5,63,56.4z"/>
	<path class="st3" d="M78.5,56.4c0,1.1-0.1,2.2-0.3,3.3c-0.2,0.8-0.4,1.5-0.7,2.2c-0.7,1.4-1.8,2.2-3.4,2.4
		c-0.9,0.1-1.8,0.1-2.8-0.1c-1.1-0.3-2-0.9-2.6-1.9c-0.5-0.8-0.8-1.6-0.9-2.5c-0.3-1.6-0.4-3.3-0.2-5c0.1-0.9,0.3-1.8,0.6-2.7
		c0.2-0.5,0.4-1,0.7-1.4c0.8-1.1,1.8-1.8,3.1-2.1c0.8-0.2,1.7-0.1,2.5,0c1.3,0.3,2.2,1,2.9,2.1c0.4,0.7,0.7,1.5,0.9,2.3
		C78.4,54.3,78.5,55.3,78.5,56.4z M75.7,56.4c0-0.7,0-1.4-0.1-2.1c-0.1-0.6-0.2-1.2-0.4-1.7c-0.1-0.4-0.3-0.7-0.5-1
		c-0.3-0.4-0.8-0.7-1.3-0.7c-0.2,0-0.3,0-0.5,0c-0.7,0-1.2,0.3-1.6,0.9c-0.2,0.3-0.4,0.7-0.5,1.1c-0.2,0.6-0.3,1.3-0.3,1.9
		c-0.1,1.4-0.1,2.8,0.1,4.3c0.1,0.6,0.2,1.3,0.5,1.8c0.5,1,1.5,1.4,2.5,1.2c0.5-0.1,1-0.4,1.3-0.9c0.2-0.2,0.3-0.5,0.4-0.7
		c0.2-0.4,0.3-0.9,0.3-1.3C75.6,58.2,75.7,57.4,75.7,56.4z"/>
	<path class="st3" d="M48.3,64.1c-1.5,0-3.1,0-4.6,0c-0.1,0-0.2,0-0.3,0c-0.3,0-0.3,0-0.3-0.3c0-0.4,0-0.8,0-1.2
		c0-0.2,0.1-0.4,0.2-0.6c0.9-1,1.8-2.1,2.7-3.1c0.8-1,1.6-1.9,2.5-2.9c0.3-0.3,0.5-0.7,0.8-1c0.3-0.5,0.5-1,0.6-1.5
		c0-0.4,0-0.7-0.1-1.1c-0.1-0.4-0.3-0.7-0.7-1c-0.3-0.2-0.6-0.3-0.9-0.4c-0.7-0.1-1.5-0.1-2.2,0.1c-0.1,0-0.1,0-0.2,0.1
		c-0.2,0.1-0.3,0.2-0.3,0.5c0,0.1,0,0.3,0,0.4c0,0.4,0,0.7,0,1.1c0,0.2,0,0.3-0.3,0.2c-0.6,0-1.2-0.1-1.8-0.2c-0.2,0-0.2,0-0.2-0.2
		c0-1,0-2.1,0-3.1c0-0.1,0.1-0.2,0.2-0.3c0.3-0.2,0.6-0.3,1-0.4c1.3-0.4,2.6-0.6,3.9-0.5c0.9,0,1.8,0.2,2.6,0.7
		c1,0.6,1.6,1.5,1.9,2.6c0.2,0.9,0.1,1.8-0.3,2.7c-0.2,0.6-0.6,1.2-1,1.7c-0.4,0.6-0.9,1.1-1.3,1.6c-1.1,1.2-2.2,2.5-3.2,3.7
		c-0.1,0.1-0.1,0.1-0.2,0.2c0,0.1,0,0.1,0.1,0.1c0.1,0,0.3,0,0.4,0c1.9,0,3.9,0,5.8,0c0.5,0,0.5,0,0.5,0.5c0,0.4,0,0.9,0,1.3
		c0,0.2,0,0.2-0.2,0.2c-0.1,0-0.2,0-0.3,0C51.4,64.1,49.9,64.1,48.3,64.1z"/>
	<path class="st2" d="M63,56.4c0,1.1-0.1,2-0.2,3c-0.1,0.4-0.2,0.8-0.3,1.2c-0.1,0.1-0.1,0.2-0.2,0.4c-0.6,1-1.7,1.5-2.8,1
		c-0.3-0.1-0.6-0.3-0.8-0.6c-0.3-0.4-0.5-0.8-0.6-1.2c-0.2-0.8-0.3-1.6-0.4-2.4c0-1.1,0-2.1,0.1-3.2c0.1-0.7,0.2-1.3,0.4-2
		c0.1-0.3,0.3-0.6,0.5-0.9c0.4-0.5,0.9-0.7,1.5-0.7c0.1,0,0.3,0,0.4,0c0.7,0,1.2,0.3,1.6,0.9c0.2,0.3,0.4,0.7,0.5,1
		c0.2,0.6,0.3,1.2,0.3,1.8C62.9,55.3,63,55.9,63,56.4z"/>
	<path class="st2" d="M75.7,56.4c0,0.9,0,1.8-0.2,2.7c-0.1,0.5-0.2,0.9-0.3,1.3c-0.1,0.3-0.2,0.5-0.4,0.7c-0.3,0.5-0.7,0.7-1.3,0.9
		c-1.1,0.2-2-0.1-2.5-1.2c-0.3-0.6-0.4-1.2-0.5-1.8c-0.2-1.4-0.2-2.8-0.1-4.3c0-0.6,0.1-1.3,0.3-1.9c0.1-0.4,0.3-0.7,0.5-1.1
		c0.4-0.6,0.9-0.9,1.6-0.9c0.2,0,0.3,0,0.5,0c0.5,0,1,0.3,1.3,0.7c0.2,0.3,0.4,0.6,0.5,1c0.2,0.6,0.3,1.1,0.4,1.7
		C75.7,55,75.7,55.7,75.7,56.4z"/>
</g>
</svg>
